<svg width="22" height="19" viewBox="0 0 22 19" fill="none" xmlns="http://www.w3.org/2000/svg">
<path d="M10.5448 13.3499C8.15484 13.3499 6.21484 11.4099 6.21484 9.01994C6.21484 6.62994 8.15484 4.68994 10.5448 4.68994C12.9348 4.68994 14.8748 6.62994 14.8748 9.01994C14.8748 11.4099 12.9348 13.3499 10.5448 13.3499ZM10.5448 6.18994C8.98484 6.18994 7.71484 7.45994 7.71484 9.01994C7.71484 10.5799 8.98484 11.8499 10.5448 11.8499C12.1048 11.8499 13.3748 10.5799 13.3748 9.01994C13.3748 7.45994 12.1048 6.18994 10.5448 6.18994Z" fill="white"/>
<path d="M10.545 18.04C6.785 18.04 3.235 15.84 0.795 12.02C-0.265 10.37 -0.265 7.68 0.795 6.02C3.245 2.2 6.795 0 10.545 0C14.295 0 17.845 2.2 20.285 6.02C21.345 7.67 21.345 10.36 20.285 12.02C17.845 15.84 14.295 18.04 10.545 18.04ZM10.545 1.5C7.315 1.5 4.225 3.44 2.065 6.83C1.315 8 1.315 10.04 2.065 11.21C4.225 14.6 7.315 16.54 10.545 16.54C13.775 16.54 16.865 14.6 19.025 11.21C19.775 10.04 19.775 8 19.025 6.83C16.865 3.44 13.775 1.5 10.545 1.5Z" fill="white"/>
</svg>
