<svg width="20" height="20" viewBox="0 0 20 20" fill="none" xmlns="http://www.w3.org/2000/svg">
<path d="M10 1.43659C9.21437 1.43659 8.45866 1.5376 7.73288 1.73962C7.00711 1.94164 6.32248 2.2297 5.67901 2.60382C5.03554 2.97793 4.45941 3.42312 3.95062 3.93939C3.44183 4.45567 2.99663 5.03554 2.61504 5.67901C2.23345 6.32248 1.94538 7.00337 1.75084 7.72166C1.5563 8.43995 1.45155 9.1994 1.43659 10C1.43659 10.7856 1.5376 11.5413 1.73962 12.2671C1.94164 12.9929 2.2297 13.6775 2.60382 14.321C2.97793 14.9645 3.42312 15.5406 3.93939 16.0494C4.45567 16.5582 5.03554 17.0034 5.67901 17.385C6.32248 17.7666 7.00337 18.0546 7.72166 18.2492C8.43995 18.4437 9.1994 18.5484 10 18.5634C10.7856 18.5634 11.5413 18.4624 12.2671 18.2604C12.9929 18.0584 13.6775 17.7703 14.321 17.3962C14.9645 17.0221 15.5406 16.5769 16.0494 16.0606C16.5582 15.5443 17.0034 14.9645 17.385 14.321C17.7666 13.6775 18.0546 12.9966 18.2492 12.2783C18.4437 11.56 18.5484 10.8006 18.5634 10C18.5634 9.21437 18.4624 8.45866 18.2604 7.73288C18.0584 7.00711 17.7703 6.32622 17.3962 5.69024C17.0221 5.05425 16.5731 4.47437 16.0494 3.95062C15.5256 3.42686 14.9495 2.98167 14.321 2.61504C13.6925 2.24841 13.0116 1.96034 12.2783 1.75084C11.5451 1.54134 10.7856 1.43659 10 1.43659ZM10 0C10.9203 0 11.8032 0.119716 12.6487 0.359147C13.4942 0.598578 14.2911 0.935279 15.0393 1.36925C15.7875 1.80322 16.4609 2.32323 17.0595 2.92929C17.6581 3.53535 18.1818 4.2125 18.6308 4.96072C19.0797 5.70894 19.4164 6.50206 19.6409 7.34007C19.8653 8.17808 19.985 9.06472 20 10C20 10.9203 19.8803 11.8032 19.6409 12.6487C19.4014 13.4942 19.0647 14.2911 18.6308 15.0393C18.1968 15.7875 17.6768 16.4609 17.0707 17.0595C16.4646 17.6581 15.7875 18.1818 15.0393 18.6308C14.2911 19.0797 13.4979 19.4164 12.6599 19.6409C11.8219 19.8653 10.9353 19.985 10 20C9.07969 20 8.19678 19.8803 7.35129 19.6409C6.5058 19.4014 5.70894 19.0647 4.96072 18.6308C4.2125 18.1968 3.53909 17.6768 2.94052 17.0707C2.34194 16.4646 1.81818 15.7875 1.36925 15.0393C0.920314 14.2911 0.583614 13.4979 0.359147 12.6599C0.13468 11.8219 0.0149645 10.9353 0 10C0 9.07969 0.119716 8.19678 0.359147 7.35129C0.598578 6.5058 0.935279 5.70894 1.36925 4.96072C1.80322 4.2125 2.32323 3.53909 2.92929 2.94052C3.53535 2.34194 4.2125 1.81818 4.96072 1.36925C5.70894 0.920314 6.50206 0.583614 7.34007 0.359147C8.17808 0.13468 9.06472 0.0149645 10 0ZM9.01235 15.2301L8.00224 14.22L12.1549 10.0561L8.00224 5.89226L9.01235 4.88215L14.1863 10.0561L9.01235 15.2301Z" fill="#2573EF"/>
</svg>
