<svg width="20" height="20" viewBox="0 0 20 20" fill="none" xmlns="http://www.w3.org/2000/svg">
<path d="M10 18.5634C10.7856 18.5634 11.5413 18.4624 12.2671 18.2604C12.9929 18.0584 13.6775 17.7703 14.321 17.3962C14.9645 17.0221 15.5406 16.5769 16.0494 16.0606C16.5582 15.5443 17.0034 14.9645 17.385 14.321C17.7666 13.6775 18.0546 12.9966 18.2492 12.2783C18.4437 11.56 18.5484 10.8006 18.5634 10C18.5634 9.21437 18.4624 8.45866 18.2604 7.73288C18.0584 7.00711 17.7703 6.32248 17.3962 5.67901C17.0221 5.03554 16.5769 4.45941 16.0606 3.95062C15.5443 3.44183 14.9645 2.99663 14.321 2.61504C13.6775 2.23345 12.9966 1.94538 12.2783 1.75084C11.56 1.5563 10.8006 1.45155 10 1.43659C9.21437 1.43659 8.45866 1.5376 7.73289 1.73962C7.00711 1.94164 6.32249 2.22971 5.67902 2.60382C5.03554 2.97793 4.45941 3.42312 3.95062 3.93939C3.44183 4.45567 2.99664 5.03554 2.61504 5.67901C2.23345 6.32248 1.94538 7.00337 1.75085 7.72166C1.55631 8.43995 1.45156 9.1994 1.43659 10C1.43659 10.7856 1.5376 11.5413 1.73962 12.2671C1.94164 12.9929 2.22971 13.6738 2.60382 14.3098C2.97793 14.9458 3.42686 15.5256 3.95062 16.0494C4.47437 16.5731 5.05051 17.0183 5.67901 17.385C6.30752 17.7516 6.9884 18.0397 7.72166 18.2492C8.45492 18.4587 9.21437 18.5634 10 18.5634ZM10 20C9.07969 20 8.19678 19.8803 7.35129 19.6409C6.5058 19.4014 5.70894 19.0647 4.96072 18.6308C4.2125 18.1968 3.5391 17.6768 2.94052 17.0707C2.34194 16.4646 1.81818 15.7875 1.36925 15.0393C0.920316 14.2911 0.583616 13.4979 0.359149 12.6599C0.134683 11.8219 0.0149668 10.9353 1.90498e-06 10C2.08029e-06 9.07969 0.119719 8.19678 0.35915 7.35129C0.598582 6.5058 0.935283 5.70894 1.36925 4.96072C1.80322 4.2125 2.32324 3.53909 2.9293 2.94052C3.53536 2.34194 4.2125 1.81818 4.96072 1.36925C5.70895 0.920314 6.50206 0.583614 7.34007 0.359148C8.17808 0.134681 9.06473 0.0149646 10 -4.01199e-07C10.9203 -3.64276e-07 11.8032 0.119716 12.6487 0.359148C13.4942 0.598579 14.2911 0.93528 15.0393 1.36925C15.7875 1.80322 16.4609 2.32323 17.0595 2.92929C17.6581 3.53535 18.1818 4.2125 18.6308 4.96072C19.0797 5.70894 19.4164 6.50206 19.6409 7.34007C19.8653 8.17808 19.985 9.06472 20 10C20 10.9203 19.8803 11.8032 19.6409 12.6487C19.4014 13.4942 19.0647 14.2911 18.6308 15.0393C18.1968 15.7875 17.6768 16.4609 17.0707 17.0595C16.4646 17.6581 15.7875 18.1818 15.0393 18.6308C14.2911 19.0797 13.4979 19.4164 12.6599 19.6409C11.8219 19.8653 10.9353 19.985 10 20ZM10.9877 4.76992L11.9978 5.78002L7.84512 9.94388L11.9978 14.1077L10.9877 15.1178L5.81369 9.94388L10.9877 4.76992Z" fill="#2573EF"/>
</svg>
