<svg width="20" height="24" viewBox="0 0 20 24" fill="none" xmlns="http://www.w3.org/2000/svg">
<path d="M0.750244 0V24H3.20596V23.1654C3.20596 22.7473 3.54615 22.4071 3.96427 22.4071C4.3824 22.4071 4.72258 22.7473 4.72258 23.1654V24H7.22981V23.1654C7.22981 22.7473 7.56997 22.4071 7.98807 22.4071C8.40617 22.4071 8.74636 22.7473 8.74636 23.1654V24H11.2536V23.1654C11.2536 22.7473 11.5938 22.4071 12.0119 22.4071C12.43 22.4071 12.7701 22.7473 12.7701 23.1654V24H15.2774V23.1654C15.2774 22.7473 15.6176 22.4071 16.0357 22.4071C16.4538 22.4071 16.794 22.7473 16.794 23.1654V24H19.2497V0H16.794V0.834606C16.794 1.25273 16.4539 1.59289 16.0357 1.59289C15.6176 1.59289 15.2775 1.25273 15.2775 0.834606V0H12.7702V0.834606C12.7702 1.25273 12.43 1.59289 12.0119 1.59289C11.5938 1.59289 11.2536 1.25273 11.2536 0.834606V0H8.74638V0.834606C8.74638 1.25273 8.4062 1.59289 7.9881 1.59289C7.57 1.59289 7.22981 1.25273 7.22981 0.834606V0H4.72258V0.834606C4.72258 1.25273 4.3824 1.59289 3.96427 1.59289C3.54615 1.59289 3.20596 1.25273 3.20596 0.834606V0H0.750244ZM3.96427 3.2621C4.80052 3.2621 5.53944 2.83697 5.97621 2.19155C6.41298 2.83697 7.15185 3.2621 7.98812 3.2621C8.82442 3.2621 9.56332 2.83707 10.0001 2.19155C10.4368 2.83707 11.1757 3.2621 12.012 3.2621C12.8483 3.2621 13.5872 2.83704 14.0239 2.19155C14.4606 2.83707 15.1995 3.2621 16.0359 3.2621C16.6222 3.2621 17.1607 3.05314 17.5807 2.70579V21.2942C17.1607 20.9469 16.6222 20.7379 16.0359 20.7379C15.1995 20.7379 14.4606 21.163 14.0239 21.8085C13.5872 21.1629 12.8484 20.7379 12.012 20.7379C11.1757 20.7379 10.4368 21.1629 10 21.8085C9.56329 21.1629 8.82445 20.7379 7.9881 20.7379C7.15187 20.7379 6.41295 21.163 5.97618 21.8085C5.53942 21.163 4.80052 20.7379 3.96425 20.7379C3.37789 20.7379 2.83943 20.9469 2.41943 21.2942V2.70579C2.83945 3.05314 3.37792 3.2621 3.96427 3.2621Z" fill="#666666"/>
<path d="M14.932 5.26691H5.29205V6.93611H14.932V5.26691Z" fill="#666666"/>
<path d="M14.932 8.73355H5.29205V10.4028H14.932V8.73355Z" fill="#666666"/>
<path d="M14.932 12.2002H5.29205V13.8694H14.932V12.2002Z" fill="#666666"/>
<path d="M14.932 17.2079H8.76904V18.8771H14.932V17.2079Z" fill="#666666"/>
</svg>
