<svg width="19" height="20" viewBox="0 0 19 20" fill="none" xmlns="http://www.w3.org/2000/svg">
<g clip-path="url(#clip0_308_20)">
<path d="M14.8126 16.9647C14.4992 16.1142 13.8087 15.3626 12.8482 14.8266C11.8876 14.2906 10.7107 14 9.5 14C8.28926 14 7.11236 14.2905 6.15181 14.8266C5.19127 15.3626 4.50077 16.1142 4.18741 16.9647L4.26543 16.9799C4.57419 16.1419 5.25455 15.4014 6.20098 14.8732C7.14742 14.345 8.30704 14.0587 9.5 14.0587C10.693 14.0587 11.8526 14.345 12.799 14.8732C13.7455 15.4014 14.4258 16.1419 14.7346 16.9799L14.8126 16.9647Z" stroke="#666666" stroke-width="2"/>
<rect x="0.916687" y="0.916687" width="17.1667" height="18.125" rx="3" stroke="#666666" stroke-width="2"/>
<circle cx="9.5" cy="7.58334" r="2.875" stroke="#666666" stroke-width="2" stroke-linecap="round"/>
</g>
<defs>
<clipPath id="clip0_308_20">
<rect width="19" height="20" fill="white"/>
</clipPath>
</defs>
</svg>
