<svg width="18" height="25" viewBox="0 0 18 25" fill="none" xmlns="http://www.w3.org/2000/svg">
<path fill-rule="evenodd" clip-rule="evenodd" d="M16.3337 17.5891C14.8498 15.0264 15.7154 13.6085 15.1321 8.86483C14.6094 4.61467 11.3546 3.39788 9.68751 3.05053V0H7.99126V3.05053C6.32184 3.39788 3.06703 4.61462 2.54557 8.86483C1.96228 13.6063 2.82788 15.0264 1.34396 17.5891C0.949638 18.2655 0.457323 18.8093 0 19.2286V20.218H17.6764V19.2286C17.2203 18.8093 16.7257 18.2655 16.3337 17.5891V17.5891Z" fill="#CCCCCC"/>
<path fill-rule="evenodd" clip-rule="evenodd" d="M8.83815 24.9755C9.98306 24.9755 10.9112 24.0665 10.9112 22.9452C10.9112 21.8239 9.98306 20.915 8.83815 20.915C7.69324 20.915 6.76511 21.8239 6.76511 22.9452C6.76511 24.0665 7.69324 24.9755 8.83815 24.9755Z" fill="#CCCCCC"/>
</svg>
